<?xml version="1.0" encoding="UTF-8"?>
<svg width="66px" height="46px" viewBox="0 0 66 46" version="1.1" xmlns="http://www.w3.org/2000/svg" xmlns:xlink="http://www.w3.org/1999/xlink">
    <!-- Generator: Sketch 52.6 (67491) - http://www.bohemiancoding.com/sketch -->
    <title>Maestro</title>
    <desc>Created with Sketch.</desc>
    <g id="Cards" stroke="none" stroke-width="1" fill="none" fill-rule="evenodd">
        <g id="Color" transform="translate(-253.000000, -80.000000)">
            <g id="Maestro" transform="translate(253.000000, 80.000000)">
                <path d="M0,3.00044415 C0,1.34334461 1.34828267,0 3.00738502,0 L62.992615,0 C64.6535479,0 66,1.35178054 66,3.00044415 L66,42.9995558 C66,44.6566554 64.6517173,46 62.992615,46 L3.00738502,46 C1.34645213,46 0,44.6482195 0,42.9995558 L0,3.00044415 Z" id="Rectangle-Copy-17" fill="#262626"></path>
                <g id="_Group_-Copy" transform="translate(13.000000, 11.000000)">
                    <rect id="Rectangle" fill="#7673C0" x="14.7322034" y="2.97260274" width="10.6779661" height="19.3869863"></rect>
                    <path d="M15.4135593,12.6643836 C15.4106093,8.88184982 17.1293589,5.3080064 20.0745763,2.97260274 C15.0711154,-0.999982267 7.88594485,-0.421340907 3.56860945,4.30187322 C-0.748725942,9.02508735 -0.748725942,16.3071044 3.56860945,21.0303186 C7.88594485,25.7535327 15.0711154,26.332174 20.0745763,22.359589 C17.1284216,20.0234437 15.409567,16.4481191 15.4135593,12.6643836 Z" id="_Path_" fill="#EB001B"></path>
                    <path d="M38.6542373,20.774495 L38.6542373,19.9880543 L38.8135593,19.9880543 L38.8135593,19.8253425 L38.4101695,19.8253425 L38.4101695,19.9880543 L38.5694915,19.9880543 L38.5694915,20.774495 L38.6542373,20.774495 Z M39.4372881,20.774495 L39.4372881,19.8253425 L39.3152542,19.8253425 L39.1728814,20.5033086 L39.0305085,19.8253425 L38.9050847,19.8253425 L38.9050847,20.774495 L38.9932203,20.774495 L38.9932203,20.0626306 L39.1254237,20.6795798 L39.2169492,20.6795798 L39.3491525,20.0626306 L39.3491525,20.7812747 L39.4372881,20.774495 Z" id="Shape" fill="#00A1DF" fill-rule="nonzero"></path>
                    <path d="M39.8169492,12.6643836 C39.8168402,17.3847193 37.1489562,21.6906337 32.9463577,23.7533883 C28.7437592,25.816143 23.7442677,25.2735941 20.0711864,22.3561644 C23.0151187,20.018778 24.7339977,16.4454098 24.7339977,12.6626712 C24.7339977,8.8799327 23.0151187,5.30656444 20.0711864,2.96917808 C23.7447485,0.0513662413 28.7450174,-0.490912232 32.9478825,1.57270218 C37.1507476,3.63631659 39.8181384,7.94342997 39.8169492,12.6643836 Z" id="Path" fill="#00A1DF"></path>
                </g>
            </g>
        </g>
    </g>
</svg>