<?xml version="1.0" encoding="UTF-8"?>
<svg width="66px" height="46px" viewBox="0 0 66 46" version="1.1" xmlns="http://www.w3.org/2000/svg" xmlns:xlink="http://www.w3.org/1999/xlink">
    <!-- Generator: Sketch 52.6 (67491) - http://www.bohemiancoding.com/sketch -->
    <title>Pay Pal</title>
    <desc>Created with Sketch.</desc>
    <g id="Cards" stroke="none" stroke-width="1" fill="none" fill-rule="evenodd">
        <g id="Color" transform="translate(-26.000000, -27.000000)">
            <g id="Pay-Pal" transform="translate(26.000000, 27.000000)">
                <path d="M0,3.00044415 C0,1.34334461 1.34828267,0 3.00738502,0 L62.992615,0 C64.6535479,0 66,1.35178054 66,3.00044415 L66,42.9995558 C66,44.6566554 64.6517173,46 62.992615,46 L3.00738502,46 C1.34645213,46 0,44.6482195 0,42.9995558 L0,3.00044415 Z" id="Rectangle-Copy-4" fill="#1B3D92"></path>
                <g id="Group" transform="translate(23.000000, 11.000000)" fill="#FFFFFF">
                    <path d="M18.74525,6.2989899 C19.04475,4.37020202 18.74325,3.05808081 17.7105,1.86919192 C16.5735,0.560606061 14.5195,0 11.8915,0 L4.263,0 C3.726,0 3.2685,0.39469697 3.185,0.930808081 L0.00825,21.2772727 C-0.05425,21.6787879 0.253,22.0416667 0.655,22.0416667 L5.3645,22.0416667 L5.0395,24.1237374 C4.98475,24.475 5.25325,24.7924242 5.60525,24.7924242 L9.575,24.7924242 C10.04475,24.7924242 10.44475,24.4472222 10.518,23.9782828 L10.557,23.7742424 L11.30475,18.9843434 L11.353,18.719697 C11.42625,18.2510101 11.82625,17.905303 12.296,17.905303 L12.88975,17.905303 C16.7355,17.905303 19.74675,16.3272727 20.6265,11.7631313 C20.99425,9.85606061 20.804,8.26414141 19.83175,7.14494949 C19.538,6.80707071 19.172,6.52727273 18.74525,6.2989899" id="Path" opacity="0.68"></path>
                    <path d="M18.74525,6.2989899 C19.04475,4.37020202 18.74325,3.05808081 17.7105,1.86919192 C16.5735,0.560606061 14.5195,0 11.8915,0 L4.263,0 C3.726,0 3.2685,0.39469697 3.185,0.930808081 L0.00825,21.2772727 C-0.05425,21.6787879 0.253,22.0416667 0.655,22.0416667 L5.3645,22.0416667 L6.5475,14.4641414 L6.51075,14.7017677 C6.5945,14.1659091 7.04775,13.7709596 7.585,13.7709596 L9.8235,13.7709596 C14.2195,13.7709596 17.66175,11.9669192 18.66725,6.74974747 C18.69725,6.59570707 18.7225,6.4459596 18.74525,6.2989899" id="Path" opacity="0.7"></path>
                    <path d="M7.8185,6.32449495 C7.86875,6.00227273 8.07375,5.73813131 8.3495,5.60479798 C8.47475,5.54419192 8.615,5.51035354 8.76175,5.51035354 L14.7415,5.51035354 C15.45,5.51035354 16.1105,5.55732323 16.71425,5.65555556 C16.88675,5.68358586 17.05475,5.71590909 17.218,5.75252525 C17.381,5.78914141 17.5395,5.82979798 17.69275,5.87525253 C17.7695,5.89772727 17.84475,5.92171717 17.919,5.94646465 C18.2155,6.0459596 18.49175,6.16313131 18.74575,6.29924242 C19.04525,4.37045455 18.74375,3.05833333 17.711,1.86944444 C16.5735,0.560606061 14.5195,0 11.8915,0 L4.263,0 C3.726,0 3.2685,0.39469697 3.185,0.930808081 L0.00825,21.2772727 C-0.05425,21.6787879 0.253,22.0416667 0.655,22.0416667 L5.3645,22.0416667 L6.5475,14.4641414 L7.8185,6.32449495 Z" id="Path"></path>
                </g>
            </g>
        </g>
    </g>
</svg>