<?xml version="1.0" encoding="UTF-8"?>
<svg width="66px" height="46px" viewBox="0 0 66 46" version="1.1" xmlns="http://www.w3.org/2000/svg" xmlns:xlink="http://www.w3.org/1999/xlink">
    <!-- Generator: Sketch 52.6 (67491) - http://www.bohemiancoding.com/sketch -->
    <title>Stripe</title>
    <desc>Created with Sketch.</desc>
    <g id="Cards" stroke="none" stroke-width="1" fill="none" fill-rule="evenodd">
        <g id="Color" transform="translate(-26.000000, -133.000000)">
            <g id="Stripe" transform="translate(26.000000, 133.000000)">
                <path d="M0,3.00044415 C0,1.34334461 1.34828267,0 3.00738502,0 L62.992615,0 C64.6535479,0 66,1.35178054 66,3.00044415 L66,42.9995558 C66,44.6566554 64.6517173,46 62.992615,46 L3.00738502,46 C1.34645213,46 0,44.6482195 0,42.9995558 L0,3.00044415 Z" id="Rectangle-Copy-13" fill="#6772E5"></path>
                <g id="Stripe-logo---white-Copy" transform="translate(13.000000, 15.000000)" fill="#FFFFFF">
                    <path d="M40,8.772 C40,5.87066667 38.6222222,3.58133333 35.9888889,3.58133333 C33.3444444,3.58133333 31.7444444,5.87066667 31.7444444,8.74933333 C31.7444444,12.1606667 33.6333333,13.8833333 36.3444444,13.8833333 C37.6666667,13.8833333 38.6666667,13.5773333 39.4222222,13.1466667 L39.4222222,10.88 C38.6666667,11.2653333 37.8,11.5033333 36.7,11.5033333 C35.6222222,11.5033333 34.6666667,11.118 34.5444444,9.78066667 L39.9777778,9.78066667 C39.9777778,9.63333333 40,9.044 40,8.772 Z M34.5111111,7.69533333 C34.5111111,6.41466667 35.2777778,5.882 35.9777778,5.882 C36.6555556,5.882 37.3777778,6.41466667 37.3777778,7.69533333 L34.5111111,7.69533333 Z" id="Shape"></path>
                    <path d="M27.4555556,3.58133333 C26.3666667,3.58133333 25.6666667,4.10266667 25.2777778,4.46533333 L25.1333333,3.76266667 L22.6888889,3.76266667 L22.6888889,16.9773333 L25.4666667,16.3766667 L25.4777778,13.1693333 C25.8777778,13.464 26.4666667,13.8833333 27.4444444,13.8833333 C29.4333333,13.8833333 31.2444444,12.2513333 31.2444444,8.65866667 C31.2333333,5.372 29.4,3.58133333 27.4555556,3.58133333 Z M26.7888889,11.39 C26.1333333,11.39 25.7444444,11.152 25.4777778,10.8573333 L25.4666667,6.65266667 C25.7555556,6.324 26.1555556,6.09733333 26.7888889,6.09733333 C27.8,6.09733333 28.5,7.25333333 28.5,8.738 C28.5,10.2566667 27.8111111,11.39 26.7888889,11.39 Z" id="Shape"></path>
                    <polygon id="Path" points="18.8666667 2.91266667 21.6555556 2.30066667 21.6555556 0 18.8666667 0.600666667"></polygon>
                    <rect id="Rectangle" x="18.8666667" y="3.774" width="2.78888889" height="9.91666667"></rect>
                    <path d="M15.8777778,4.61266667 L15.7,3.774 L13.3,3.774 L13.3,13.6906667 L16.0777778,13.6906667 L16.0777778,6.97 C16.7333333,6.09733333 17.8444444,6.256 18.1888889,6.38066667 L18.1888889,3.774 C17.8333333,3.638 16.5333333,3.38866667 15.8777778,4.61266667 Z" id="Path"></path>
                    <path d="M10.3222222,1.31466667 L7.61111111,1.904 L7.6,10.982 C7.6,12.6593333 8.83333333,13.8946667 10.4777778,13.8946667 C11.3888889,13.8946667 12.0555556,13.7246667 12.4222222,13.5206667 L12.4222222,11.22 C12.0666667,11.3673333 10.3111111,11.8886667 10.3111111,10.2113333 L10.3111111,6.188 L12.4222222,6.188 L12.4222222,3.774 L10.3111111,3.774 L10.3222222,1.31466667 Z" id="Path"></path>
                    <path d="M2.81111111,6.65266667 C2.81111111,6.21066667 3.16666667,6.04066667 3.75555556,6.04066667 C4.6,6.04066667 5.66666667,6.30133333 6.51111111,6.766 L6.51111111,4.10266667 C5.58888889,3.72866667 4.67777778,3.58133333 3.75555556,3.58133333 C1.5,3.58133333 0,4.78266667 0,6.78866667 C0,9.91666667 4.22222222,9.418 4.22222222,10.7666667 C4.22222222,11.288 3.77777778,11.458 3.15555556,11.458 C2.23333333,11.458 1.05555556,11.0726667 0.122222222,10.5513333 L0.122222222,13.2486667 C1.15555556,13.702 2.2,13.8946667 3.15555556,13.8946667 C5.46666667,13.8946667 7.05555556,12.7273333 7.05555556,10.6986667 C7.04444444,7.32133333 2.81111111,7.922 2.81111111,6.65266667 Z" id="Path"></path>
                </g>
            </g>
        </g>
    </g>
</svg>