<?xml version="1.0" encoding="UTF-8"?>
<svg width="19px" height="16px" viewBox="0 0 19 16" version="1.1" xmlns="http://www.w3.org/2000/svg" xmlns:xlink="http://www.w3.org/1999/xlink">
    <!-- Generator: Sketch 52.6 (67491) - http://www.bohemiancoding.com/sketch -->
    <title>cart</title>
    <desc>Created with Sketch.</desc>
    <g id="Page-1" stroke="none" stroke-width="1" fill="none" fill-rule="evenodd">
        <g id="Desktop-HD" transform="translate(-1371.000000, -17.000000)" fill="#FFFFFF">
            <g id="block1" transform="translate(30.000000, 5.000000)">
                <g id="block1_4" transform="translate(1341.000000, 11.000000)">
                    <g id="cart" transform="translate(0.000000, 1.000000)">
                        <path d="M14.5090223,14.530938 C14.5090223,14.9316129 14.6511166,15.2734491 14.934273,15.5566055 C15.2174293,15.8400397 15.5595434,15.9818561 15.9603772,15.9818561 C16.3606154,15.9818561 16.7027295,15.8400397 16.9858859,15.5566055 C17.2693201,15.2734491 17.4111365,14.9316129 17.4111365,14.530938 C17.4111365,14.130263 17.2694789,13.7884268 16.9858859,13.5049926 C16.7027295,13.2218362 16.3606154,13.0800199 15.9603772,13.0800199 C15.5595434,13.0800199 15.2174293,13.2218362 14.934273,13.5049926 C14.6511166,13.7884268 14.5090223,14.130263 14.5090223,14.530938 Z" id="Path"></path>
                        <path d="M18.6464715,1.68774194 C18.5028288,1.54413896 18.3329032,1.47231762 18.1363772,1.47231762 L4.52279901,1.47231762 C4.51513648,1.41947395 4.49814392,1.32319603 4.47170223,1.18340447 C4.44526055,1.0435335 4.42453598,0.932129032 4.40940943,0.848913151 C4.39420347,0.766054591 4.36601489,0.665846154 4.32436725,0.548724566 C4.28279901,0.431523573 4.23368734,0.338858561 4.17703226,0.271007444 C4.12045658,0.202799007 4.04490323,0.144397022 3.95041191,0.0951265509 C3.856,0.0461736973 3.74824814,0.0215583127 3.62739454,0.0215583127 L0.725598015,0.0215583127 C0.528992556,0.0215583127 0.358987593,0.0934987593 0.215424318,0.236903226 C0.07182134,0.380466501 0,0.550590571 0,0.747037221 C0,0.943483871 0.07182134,1.11352854 0.215424318,1.25709181 C0.3591067,1.40069479 0.529151365,1.47243672 0.725598015,1.47243672 L3.03773697,1.47243672 L5.04397022,10.8015087 C5.02896278,10.8316824 4.95150372,10.9751266 4.81163275,11.2321985 C4.67184119,11.4892705 4.56039702,11.7139851 4.47733995,11.90666 C4.39424318,12.0995732 4.35267494,12.2487345 4.35267494,12.3544615 C4.35267494,12.5509082 4.42449628,12.7209926 4.56801985,12.864794 C4.71178164,13.0079603 4.8817469,13.0800199 5.07823325,13.0800199 L5.80367246,13.0800199 L15.9600993,13.0800199 L16.6851017,13.0800199 C16.8815484,13.0800199 17.0516328,13.008 17.1951563,12.864794 C17.3388784,12.7210323 17.4106203,12.5509479 17.4106203,12.3544615 C17.4106203,12.1579752 17.3388784,11.9878908 17.1951563,11.8444069 C17.0516725,11.7009231 16.8815881,11.6289032 16.6851017,11.6289032 L6.25691315,11.6289032 C6.43835236,11.2661042 6.52903226,11.0245558 6.52903226,10.9036228 C6.52903226,10.8278313 6.51958313,10.7446551 6.50064516,10.6541737 C6.4817072,10.5636923 6.45907692,10.4634045 6.43263524,10.3536675 C6.40615385,10.2444069 6.38924069,10.1631365 6.38169727,10.1101737 L18.2160199,8.72730521 C18.4047246,8.70447643 18.5597618,8.62352357 18.6806551,8.4835335 C18.8015881,8.34386104 18.8618958,8.18330521 18.8618958,8.0018263 L18.8618958,2.19803474 C18.8618164,2.00158809 18.7901935,1.83154342 18.6464715,1.68774194 Z" id="Path"></path>
                        <path d="M4.35263524,14.530938 C4.35263524,14.9316129 4.4942531,15.2734491 4.77768734,15.5566055 C5.06120099,15.8400397 5.40299752,15.9818561 5.80363275,15.9818561 C6.20402978,15.9818561 6.54602481,15.8400397 6.82933995,15.5566055 C7.11277419,15.2734491 7.25455087,14.9316129 7.25455087,14.530938 C7.25455087,14.130263 7.1128933,13.7884268 6.82933995,13.5049926 C6.54598511,13.2218362 6.20402978,13.0800199 5.80363275,13.0800199 C5.40303722,13.0800199 5.06104218,13.2218362 4.77768734,13.5049926 C4.49441191,13.7884268 4.35263524,14.130263 4.35263524,14.530938 Z" id="Path"></path>
                    </g>
                </g>
            </g>
        </g>
    </g>
</svg>