<?xml version="1.0" encoding="UTF-8"?>
<svg width="16px" height="16px" viewBox="0 0 16 16" version="1.1" xmlns="http://www.w3.org/2000/svg" xmlns:xlink="http://www.w3.org/1999/xlink">
    <!-- Generator: Sketch 52.6 (67491) - http://www.bohemiancoding.com/sketch -->
    <title>facebook</title>
    <desc>Created with Sketch.</desc>
    <g id="Page-1" stroke="none" stroke-width="1" fill="none" fill-rule="evenodd">
        <g id="Desktop-HD" transform="translate(-991.000000, -112.000000)" fill="#FFFFFF">
            <g id="block2" transform="translate(0.000000, 50.000000)">
                <g id="block2_4" transform="translate(991.000000, 62.000000)">
                    <g id="facebook">
                        <path d="M13.65625,0 L2.34375,0 C1.05151369,0 0,1.05151369 0,2.34375 L0,13.65625 C0,14.9484863 1.05151369,16 2.34375,16 L7.0625,16 L7.0625,10.34375 L5.1875,10.34375 L5.1875,7.53125 L7.0625,7.53125 L7.0625,5.625 C7.0625,4.07409669 8.32409669,2.8125 9.875,2.8125 L12.71875,2.8125 L12.71875,5.625 L9.875,5.625 L9.875,7.53125 L12.71875,7.53125 L12.25,10.34375 L9.875,10.34375 L9.875,16 L13.65625,16 C14.9484863,16 16,14.9484863 16,13.65625 L16,2.34375 C16,1.05151369 14.9484863,0 13.65625,0 Z" id="Path"></path>
                    </g>
                </g>
            </g>
        </g>
    </g>
</svg>