<?xml version="1.0" encoding="UTF-8"?>
<svg width="15px" height="15px" viewBox="0 0 15 15" version="1.1" xmlns="http://www.w3.org/2000/svg" xmlns:xlink="http://www.w3.org/1999/xlink">
    <!-- Generator: Sketch 52.6 (67491) - http://www.bohemiancoding.com/sketch -->
    <title>Shape</title>
    <desc>Created with Sketch.</desc>
    <g id="Page-1" stroke="none" stroke-width="1" fill="none" fill-rule="evenodd">
        <g id="Desktop-HD" transform="translate(-716.000000, -18.000000)" fill="#FFFFFF" fill-rule="nonzero">
            <g id="block1" transform="translate(30.000000, 5.000000)">
                <g id="block1_2" transform="translate(676.000000, 6.000000)">
                    <path d="M20.0855293,16.7695336 C21.0422838,15.7337803 21.6391748,14.3469 21.6391748,12.8195874 C21.6391748,9.61573183 19.0322103,7 15.8195874,7 C12.6069645,7 10,9.61573183 10,12.8195874 C10,16.023443 12.6069645,18.6391748 15.8195874,18.6391748 C17.1274688,18.6391748 18.3299874,18.2090799 19.3043074,17.480524 L23.6316826,21.8078992 C23.7370145,21.9132311 23.8686794,21.965897 24.0003443,21.965897 C24.1320091,21.965897 24.2724413,21.9132311 24.3690059,21.8078992 C24.5709024,21.6060027 24.5709024,21.2724723 24.3690059,21.0618085 L20.0855293,16.7695336 Z M11.053319,12.8195874 C11.053319,10.1950573 13.1862899,8.05331899 15.8195874,8.05331899 C18.4441176,8.05331899 20.5858559,10.1862899 20.5858559,12.8195874 C20.5858559,15.4528849 18.4528849,17.5858559 15.8195874,17.5858559 C13.1862899,17.5858559 11.053319,15.4441176 11.053319,12.8195874 Z" id="Shape"></path>
                </g>
            </g>
        </g>
    </g>
</svg>