<?xml version="1.0" encoding="UTF-8"?>
<svg width="14px" height="14px" viewBox="0 0 14 14" version="1.1" xmlns="http://www.w3.org/2000/svg" xmlns:xlink="http://www.w3.org/1999/xlink">
    <!-- Generator: Sketch 52.6 (67491) - http://www.bohemiancoding.com/sketch -->
    <title>Shape</title>
    <desc>Created with Sketch.</desc>
    <g id="Page-1" stroke="none" stroke-width="1" fill="none" fill-rule="evenodd">
        <g id="Desktop-HD" transform="translate(-142.000000, -278.000000)" fill="#FF0000" fill-rule="nonzero">
            <g id="block3" transform="translate(135.000000, 226.000000)">
                <g id="block3_1">
                    <g id="Group-20" transform="translate(0.000000, 46.000000)">
                        <g id="emoji" transform="translate(7.000000, 6.000000)">
                            <path d="M11.9497528,2.0502472 C10.6276398,0.728134148 8.86973571,0 7,0 C5.13026429,0 3.37236022,0.728134148 2.0502472,2.0502472 C0.728134148,3.37236022 -2.84217094e-14,5.13026429 -2.84217094e-14,7 C-2.84217094e-14,8.86973571 0.728134148,10.6276398 2.0502472,11.9497528 C3.37236022,13.2718659 5.13026429,14 7,14 C8.86973571,14 10.6276398,13.2718659 11.9497528,11.9497528 C13.2718659,10.6276398 14,8.86973571 14,7 C14,5.13026429 13.2718659,3.37236022 11.9497528,2.0502472 Z M4.18904114,5.71676634 C4.18904114,5.32551575 4.50744629,5.00721741 4.89869691,5.00721741 C5.28994752,5.00721741 5.60824584,5.32551575 5.60824584,5.71676634 C5.60824584,6.10801696 5.28994752,6.4263153 4.89869691,6.4263153 C4.50744629,6.4263153 4.18904114,6.10801696 4.18904114,5.71676634 Z M4.55681265,9.75273254 C5.05936087,8.8839276 5.99438896,8.34431578 6.99702871,8.34431578 C8.0015911,8.34431578 8.93758046,8.88552978 9.43959462,9.75668456 C9.55270803,9.95300416 9.48530996,10.2037976 9.28899039,10.3168042 C9.09277763,10.4300244 8.84198414,10.3625195 8.72887076,10.1663068 C8.37286793,9.54840208 7.70924794,9.16462828 6.99702871,9.16462828 C6.28619801,9.16462828 5.62332571,9.54733398 5.26689566,10.1634228 C5.15346181,10.3595288 4.90256155,10.4264996 4.70645559,10.3130658 C4.51034964,10.1997388 4.4433788,9.94873169 4.55681265,9.75273254 Z M9.09745788,6.4263153 C8.70610046,6.4263153 8.38780212,6.10801696 8.38780212,5.71676634 C8.38780212,5.32551575 8.70610046,5.00721741 9.09745788,5.00721741 C9.48860169,5.00721741 9.80690003,5.32551575 9.80690003,5.71676634 C9.80700684,6.10801696 9.48860169,6.4263153 9.09745788,6.4263153 Z" id="Shape"></path>
                        </g>
                    </g>
                </g>
            </g>
        </g>
    </g>
</svg>