<?xml version="1.0" encoding="UTF-8"?>
<svg width="14px" height="14px" viewBox="0 0 14 14" version="1.1" xmlns="http://www.w3.org/2000/svg" xmlns:xlink="http://www.w3.org/1999/xlink">
    <!-- Generator: Sketch 52.6 (67491) - http://www.bohemiancoding.com/sketch -->
    <title>Shape</title>
    <desc>Created with Sketch.</desc>
    <g id="Page-1" stroke="none" stroke-width="1" fill="none" fill-rule="evenodd">
        <g id="Desktop-HD" transform="translate(-142.000000, -278.000000)" fill="#16C172" fill-rule="nonzero">
            <g id="block3" transform="translate(135.000000, 226.000000)">
                <g id="block3_1">
                    <g id="Group-20" transform="translate(0.000000, 46.000000)">
                        <g id="emoji" transform="translate(7.000000, 6.000000)">
                            <path d="M11.9497528,2.0502472 C10.6276398,0.728134148 8.86973571,0 7,0 C5.13026429,0 3.37236022,0.728134148 2.0502472,2.0502472 C0.728134148,3.37236022 -2.84217094e-14,5.13026429 -2.84217094e-14,7 C-2.84217094e-14,8.86973571 0.728134148,10.6276398 2.0502472,11.9497528 C3.37236022,13.2718659 5.13026429,14 7,14 C8.86973571,14 10.6276398,13.2718659 11.9497528,11.9497528 C13.2718659,10.6276398 14,8.86973571 14,7 C14,5.13026429 13.2718659,3.37236022 11.9497528,2.0502472 Z M4.18904114,5.71676634 C4.18904114,5.32551575 4.50744629,5.00721741 4.89869691,5.00721741 C5.28994752,5.00721741 5.60824584,5.32551575 5.60824584,5.71676634 C5.60824584,6.10801696 5.28994752,6.4263153 4.89869691,6.4263153 C4.50744629,6.4263153 4.18904114,6.10801696 4.18904114,5.71676634 Z M9.43925475,8.96330261 C8.93670654,9.83210755 8.00167845,10.3717194 6.9990387,10.3717194 C5.9944763,10.3717194 5.05848695,9.83050537 4.55647279,8.95935059 C4.44335937,8.76303099 4.51075745,8.51223756 4.70707702,8.39923096 C4.90328978,8.28601074 5.15408327,8.35351562 5.26719665,8.54972839 C5.62319948,9.16763307 6.28681946,9.55140687 6.9990387,9.55140687 C7.7098694,9.55140687 8.3727417,9.16870117 8.72917175,8.5526123 C8.8426056,8.35650635 9.09350586,8.28953552 9.28961182,8.40296937 C9.48571777,8.51629639 9.55268861,8.76730345 9.43925475,8.96330261 Z M9.09745788,6.4263153 C8.70610046,6.4263153 8.38780212,6.10801696 8.38780212,5.71676634 C8.38780212,5.32551575 8.70610046,5.00721741 9.09745788,5.00721741 C9.48860169,5.00721741 9.80690003,5.32551575 9.80690003,5.71676634 C9.80700684,6.10801696 9.48860169,6.4263153 9.09745788,6.4263153 Z" id="Shape"></path>
                        </g>
                    </g>
                </g>
            </g>
        </g>
    </g>
</svg>