<?xml version="1.0" encoding="UTF-8"?>
<svg width="14px" height="14px" viewBox="0 0 14 14" version="1.1" xmlns="http://www.w3.org/2000/svg" xmlns:xlink="http://www.w3.org/1999/xlink">
    <!-- Generator: Sketch 52.6 (67491) - http://www.bohemiancoding.com/sketch -->
    <title>Shape</title>
    <desc>Created with Sketch.</desc>
    <g id="Page-1" stroke="none" stroke-width="1" fill="none" fill-rule="evenodd">
        <g id="Desktop-HD" transform="translate(-142.000000, -278.000000)" fill="#FFC101" fill-rule="nonzero">
            <g id="block3" transform="translate(135.000000, 226.000000)">
                <g id="block3_1">
                    <g id="Group-20" transform="translate(0.000000, 46.000000)">
                        <g id="emoji" transform="translate(7.000000, 6.000000)">
                            <path d="M11.9497528,2.0502472 C10.6276398,0.728134148 8.86973571,0 7,0 C5.13026429,0 3.37236022,0.728134148 2.0502472,2.0502472 C0.728134148,3.37236022 -2.84217094e-14,5.13026429 -2.84217094e-14,7 C-2.84217094e-14,8.86973571 0.728134148,10.6276398 2.0502472,11.9497528 C3.37236022,13.2718659 5.13026429,14 7,14 C8.86973571,14 10.6276398,13.2718659 11.9497528,11.9497528 C13.2718659,10.6276398 14,8.86973571 14,7 C14,5.13026429 13.2718659,3.37236022 11.9497528,2.0502472 Z M4.18904114,5.71676634 C4.18904114,5.32551575 4.50744629,5.00721741 4.89869691,5.00721741 C5.28994752,5.00721741 5.60824584,5.32551575 5.60824584,5.71676634 C5.60824584,6.10801696 5.28994752,6.4263153 4.89869691,6.4263153 C4.50744629,6.4263153 4.18904114,6.10801696 4.18904114,5.71676634 Z M4.46821874,9.14826341 C5.31217634,9.39288797 6.15611717,9.51520025 7.00004124,9.51520025 C7.84395985,9.51520025 8.68787565,9.39288955 9.53178863,9.14826815 L9.53177585,9.14822406 C9.72605634,9.09190882 9.92920432,9.20375175 9.98551956,9.39803223 C9.995125,9.4311698 10,9.46549837 10,9.5 L9.99992206,9.64869792 C9.99992206,9.86307767 9.86323632,10.0535931 9.6601553,10.1222719 C8.77346142,10.4221379 7.88675673,10.5720709 7.00004124,10.5720709 C6.11330079,10.5720709 5.22654954,10.4221294 4.33978748,10.1222466 L4.33979876,10.1222133 C4.13669886,10.0535295 4,9.862997 4,9.64859777 L4,9.5 C4,9.29771663 4.16398307,9.13373355 4.36626645,9.13373355 C4.40076772,9.13373355 4.43509594,9.13860831 4.46823326,9.1482133 Z M9.09745788,6.4263153 C8.70610046,6.4263153 8.38780212,6.10801696 8.38780212,5.71676634 C8.38780212,5.32551575 8.70610046,5.00721741 9.09745788,5.00721741 C9.48860169,5.00721741 9.80690003,5.32551575 9.80690003,5.71676634 C9.80700684,6.10801696 9.48860169,6.4263153 9.09745788,6.4263153 Z" id="Shape"></path>
                        </g>
                    </g>
                </g>
            </g>
        </g>
    </g>
</svg>