<?xml version="1.0" encoding="UTF-8"?>
<svg width="27px" height="16px" viewBox="0 0 27 16" version="1.1" xmlns="http://www.w3.org/2000/svg" xmlns:xlink="http://www.w3.org/1999/xlink">
    <!-- Generator: Sketch 52.6 (67491) - http://www.bohemiancoding.com/sketch -->
    <title>steam-logo</title>
    <desc>Created with Sketch.</desc>
    <g id="Page-1" stroke="none" stroke-width="1" fill="none" fill-rule="evenodd">
        <g id="Desktop-HD" transform="translate(-1164.000000, -549.000000)" fill="#FFFFFF" fill-rule="nonzero">
            <g id="block3" transform="translate(135.000000, 226.000000)">
                <g id="block3_4" transform="translate(800.000000, 89.000000)">
                    <g id="Group-12" transform="translate(11.000000, 230.000000)">
                        <g id="Group-11" transform="translate(218.000000, 3.000000)">
                            <g id="steam-logo" transform="translate(0.000000, 1.000000)">
                                <path d="M24.6714074,4.60474074 C24.6714074,5.96237037 23.5665185,7.06340741 22.2038519,7.06340741 C20.8397037,7.06340741 19.7357037,5.96237037 19.7357037,4.60474074 C19.7357037,3.24711111 20.8402963,2.14637037 22.2038519,2.14637037 C23.5665185,2.14637037 24.6714074,3.24711111 24.6714074,4.60474074 Z M23.677037,8.75881481 L20.6885926,11.3051852 C20.7208889,11.5084444 20.7428148,11.714963 20.7428148,11.9268148 C20.7428148,14.0945185 18.9786667,15.8521481 16.8032593,15.8521481 C14.9265185,15.8521481 13.3594074,14.5442963 12.9623704,12.7943704 L5.57540741,10.2974815 C4.9917037,10.738963 4.26607407,11.0044444 3.47674074,11.0044444 C1.55674074,11.0041481 0,9.45274074 0,7.53985185 C0,5.62725926 1.55674074,4.07674074 3.47674074,4.07674074 C5.1277037,4.07674074 6.50666667,5.22340741 6.86251852,6.7597037 L13.9982222,9.17185185 C14.6933333,8.46992593 15.6518519,8.02992593 16.7140741,8.00622222 L17.7828148,4.76948148 C17.7795556,4.70518519 17.773037,4.64177778 17.773037,4.57688889 C17.773037,2.13096296 19.7641481,0.148148148 22.2198519,0.148148148 C24.6752593,0.148148148 26.6666667,2.13096296 26.6666667,4.57688889 C26.6666667,6.51466667 25.416,8.15733333 23.677037,8.75881481 Z M5.66281481,6.35437037 C5.24740741,5.60948148 4.45007407,5.10488889 3.53422222,5.10488889 C2.18962963,5.10488889 1.09955556,6.19081481 1.09955556,7.53007407 C1.09955556,8.86933333 2.18962963,9.95496296 3.53422222,9.95496296 C3.78281481,9.95496296 4.02222222,9.91792593 4.248,9.84888889 L3.09125926,9.45807407 C2.15911111,8.96088889 1.8082963,7.80503704 2.30755556,6.87644444 C2.80711111,5.94844444 3.96740741,5.59940741 4.89866667,6.09659259 L5.66281481,6.35437037 Z M18.752,4.58755556 C18.752,6.48740741 20.2980741,8.02755556 22.2053333,8.02755556 C24.1125926,8.02755556 25.6595556,6.48740741 25.6595556,4.58755556 C25.6595556,2.68681481 24.1122963,1.14666667 22.2053333,1.14666667 C20.2980741,1.14666667 18.752,2.68681481 18.752,4.58755556 Z M18.8201481,12.2634074 C18.8201481,10.8171852 17.642963,9.64414815 16.1911111,9.64414815 C15.9872593,9.64414815 15.7905185,9.66962963 15.6002963,9.71288889 L17.0696296,10.2094815 C18.0014815,10.7072593 18.3514074,11.8628148 17.8524444,12.7905185 C17.3531852,13.72 16.1928889,14.0681481 15.2616296,13.5712593 L13.6782222,13.0358519 C14.0088889,14.1051852 15.0088889,14.8823704 16.1911111,14.8823704 C17.642963,14.8826667 18.8201481,13.7096296 18.8201481,12.2634074 Z" id="Steam"></path>
                            </g>
                        </g>
                    </g>
                </g>
            </g>
        </g>
    </g>
</svg>