<?xml version="1.0" encoding="UTF-8"?>
<svg width="16px" height="16px" viewBox="0 0 16 16" version="1.1" xmlns="http://www.w3.org/2000/svg" xmlns:xlink="http://www.w3.org/1999/xlink">
    <!-- Generator: Sketch 52.6 (67491) - http://www.bohemiancoding.com/sketch -->
    <title>link</title>
    <desc>Created with Sketch.</desc>
    <g id="Page-1" stroke="none" stroke-width="1" fill="none" fill-rule="evenodd">
        <g id="Desktop-HD" transform="translate(-1228.000000, -112.000000)" fill="#FFFFFF" fill-rule="nonzero">
            <g id="block2" transform="translate(0.000000, 50.000000)">
                <g id="block2_4" transform="translate(991.000000, 62.000000)">
                    <g id="link" transform="translate(237.000000, 0.000000)">
                        <path d="M5.8596,12.6942 L5.05,13.4982 C4.3482,14.1938 3.2068,14.1944 2.5054,13.4982 C2.1682,13.1636 1.983,12.7192 1.983,12.2468 C1.983,11.7744 2.1684,11.3298 2.5052,10.9952 L5.4852,8.0386 C6.1028,7.4262 7.2646,6.5244 8.1114,7.3642 C8.5,7.7502 9.1276,7.7476 9.5134,7.3592 C9.8994,6.9708 9.897,6.343 9.5084,5.9574 C8.069,4.529 5.9416,4.793 4.0888,6.6314 L1.1086,9.5882 C0.3936,10.298 0,11.242 0,12.2468 C0,13.2516 0.3936,14.1954 1.1088,14.9052 C1.8446,15.6352 2.8108,16 3.7774,16 C4.7442,16 5.7108,15.6352 6.447,14.9048 L7.2572,14.1006 C7.6456,13.715 7.6478,13.0874 7.2618,12.6988 C6.8764,12.3106 6.2482,12.3084 5.8596,12.6942 Z M14.8908,1.2088 C13.3448,-0.3252 11.1832,-0.4084 9.752,1.0116 L8.7428,2.0134 C8.3542,2.3992 8.3518,3.0266 8.7378,3.4152 C9.1238,3.8038 9.7514,3.806 10.14,3.4202 L11.1488,2.419 C11.8902,1.6828 12.861,1.988 13.4942,2.6162 C13.8318,2.9508 14.0172,3.3954 14.0172,3.8678 C14.0172,4.3404 13.8316,4.785 13.4946,5.1196 L10.3152,8.2736 C8.8614,9.716 8.1794,9.039 7.8884,8.7502 C7.4998,8.3644 6.8724,8.3668 6.4864,8.7552 C6.1004,9.1436 6.1028,9.7714 6.4914,10.157 C7.1588,10.8194 7.9206,11.1478 8.7192,11.1478 C9.697,11.1478 10.7298,10.6554 11.7118,9.6804 L14.8912,6.5264 C15.606,5.8166 16,4.8724 16,3.8676 C16,2.8632 15.606,1.919 14.8908,1.2088 Z" id="Shape"></path>
                    </g>
                </g>
            </g>
        </g>
    </g>
</svg>