<?xml version="1.0" encoding="UTF-8"?>
<svg width="20px" height="16px" viewBox="0 0 20 16" version="1.1" xmlns="http://www.w3.org/2000/svg" xmlns:xlink="http://www.w3.org/1999/xlink">
    <!-- Generator: Sketch 52.6 (67491) - http://www.bohemiancoding.com/sketch -->
    <title>twitter</title>
    <desc>Created with Sketch.</desc>
    <g id="Page-1" stroke="none" stroke-width="1" fill="none" fill-rule="evenodd">
        <g id="Desktop-HD" transform="translate(-1074.000000, -112.000000)" fill="#FFFFFF">
            <g id="block2" transform="translate(0.000000, 50.000000)">
                <g id="block2_4" transform="translate(991.000000, 62.000000)">
                    <g id="twitter" transform="translate(83.000000, 0.000000)">
                        <path d="M7.25258497,15.9107763 C6.41192051,15.9107763 5.5466353,15.8426985 4.676159,15.7062463 C3.14299942,15.465675 1.59100348,14.6637215 1.15183492,14.4235952 L0,13.7938384 L1.24705484,13.3837401 C2.6102424,12.9355242 3.43948642,12.6574286 4.46599289,12.221968 C3.43815153,11.7242139 2.64598695,10.8288202 2.26466225,9.67134928 L1.97455292,8.79063903 L2.21245444,8.82697684 C1.98686329,8.59960589 1.8087338,8.36882362 1.67065006,8.15895413 C1.17957029,7.41306466 0.919569455,6.50165268 0.974891931,5.7206119 L1.02947283,4.95188152 L1.48970252,5.13015933 C1.29555472,4.76351809 1.1552462,4.37195948 1.07278158,3.96156456 C0.871811189,2.96071699 1.04000339,1.89742774 1.54650819,0.967624375 L1.94741078,0.231672157 L2.48357911,0.875667429 C4.17929484,2.91266211 6.32708281,4.12100601 8.87621834,4.4747436 C8.77209933,3.7570345 8.85011444,3.06439104 9.10833546,2.44353336 C9.40897536,1.7206331 9.9438088,1.10763624 10.654547,0.670692413 C11.4438936,0.185545395 12.4011357,-0.0495381154 13.3499237,0.00875075108 C14.3565556,0.0705992033 15.270489,0.447771007 15.9963556,1.10022034 C16.3508348,1.00811509 16.6120222,0.909780509 16.9650182,0.776887891 C17.1774091,0.696944666 17.418277,0.606174262 17.7196585,0.502351904 L18.830261,0.119692356 L18.1060259,2.18813034 C18.1537842,2.18412579 18.2030257,2.18071448 18.2544919,2.1784897 L19.4404399,2.12479873 L18.7394906,3.08278243 C18.6992966,3.13765998 18.6890626,3.15323332 18.6748241,3.17473938 C18.6183151,3.25987373 18.5480125,3.36577251 17.5858759,4.65050005 C17.345008,4.97220103 17.2247225,5.3911984 17.2471184,5.83051531 C17.3324011,7.49997882 17.1275744,9.01044581 16.6379778,10.3197941 C16.1749301,11.5585431 15.4573692,12.6213874 14.5054666,13.4788118 C13.3275277,14.5395796 11.8255149,15.2658912 10.0409569,15.6372786 C9.16558606,15.8194127 8.22554878,15.9107763 7.25258497,15.9107763 Z" id="Path"></path>
                    </g>
                </g>
            </g>
        </g>
    </g>
</svg>