<?xml version="1.0" encoding="UTF-8"?>
<svg width="19px" height="22px" viewBox="0 0 19 22" version="1.1" xmlns="http://www.w3.org/2000/svg" xmlns:xlink="http://www.w3.org/1999/xlink">
    <!-- Generator: Sketch 52.6 (67491) - http://www.bohemiancoding.com/sketch -->
    <title>discord</title>
    <desc>Created with Sketch.</desc>
    <g id="Page-1" stroke="none" stroke-width="1" fill="none" fill-rule="evenodd">
        <g id="Desktop-HD" transform="translate(-535.000000, -3447.000000)">
            <g id="block8" transform="translate(0.000000, 3014.000000)">
                <g id="block8_3" transform="translate(0.000000, 72.000000)">
                    <g id="discord" transform="translate(535.000000, 361.000000)">
                        <path d="M16.7400634,0.0323283582 L2.25993657,0.0323283582 C1.04223507,0.0323283582 0.0550858209,1.01947761 0.0550858209,2.2371791 L0.0550858209,16.717306 C0.0550858209,17.9350075 1.04223507,18.9221567 2.25993657,18.9221567 L14.497,18.9221567 L14.000306,16.9354515 L18.9447724,21.520194 C18.9447724,20.9843657 18.9447724,2.7598209 18.9447724,2.2373209 C18.9448433,1.01947761 17.957694,0.0323283582 16.7400634,0.0323283582 Z" id="Path" fill="#5046AF"></path>
                        <path d="M14.2826119,6.12303358 C14.2826119,6.12303358 13.3683433,5.15509701 11.2924515,5.01500746 L11.2924515,5.32063806 C11.2924515,5.32063806 12.4310336,5.25449254 13.8404366,6.64184701 C12.7765784,5.87645896 11.2589179,5.39699254 9.57316418,5.39699254 C7.88741045,5.39699254 6.36975,5.87638806 5.30589179,6.64184701 C6.71529478,5.25449254 7.85387687,5.32063806 7.85387687,5.32063806 L7.85387687,5.01500746 C5.77798507,5.15509701 4.86371642,6.12303358 4.86371642,6.12303358 C3.28189552,8.1605709 3.19277985,12.6179851 3.19277985,12.6179851 C4.68279104,14.4136269 6.5549291,14.1844925 6.5549291,14.1844925 L7.24261567,13.1911754 C6.35578358,12.9512649 5.72247388,12.4004776 5.34183582,11.9715597 C6.40377985,12.7221306 7.90619776,13.1911754 9.57316418,13.1911754 C11.2401306,13.1911754 12.7425485,12.7222015 13.8044925,11.9715597 C13.4238545,12.4004067 12.7905448,12.9512649 11.9037127,13.1911754 L12.5913993,14.1844925 C12.5913993,14.1844925 14.4635373,14.4137687 15.9535485,12.6179851 C15.9536903,12.6179142 15.8645037,8.1605709 14.2826119,6.12303358 Z M7.58652985,11.3571791 C6.98866791,11.3571791 6.50402612,10.8422649 6.50402612,10.2069701 C6.50402612,9.57174627 6.98866791,9.05676119 7.58652985,9.05676119 C8.18439179,9.05676119 8.66903358,9.57174627 8.66903358,10.2069701 C8.66903358,10.842194 8.18439179,11.3571791 7.58652985,11.3571791 Z M11.5599403,11.3571791 C10.9620784,11.3571791 10.4774366,10.8422649 10.4774366,10.2069701 C10.4774366,9.57174627 10.9620784,9.05676119 11.5599403,9.05676119 C12.1578022,9.05676119 12.642444,9.57174627 12.642444,10.2069701 C12.642444,10.842194 12.1578731,11.3571791 11.5599403,11.3571791 Z" id="Shape" fill="#FFFFFF" fill-rule="nonzero"></path>
                    </g>
                </g>
            </g>
        </g>
    </g>
</svg>