<?xml version="1.0" encoding="UTF-8"?>
<svg width="15px" height="11px" viewBox="0 0 15 11" version="1.1" xmlns="http://www.w3.org/2000/svg" xmlns:xlink="http://www.w3.org/1999/xlink">
    <!-- Generator: Sketch 52.6 (67491) - http://www.bohemiancoding.com/sketch -->
    <title>close-envelope</title>
    <desc>Created with Sketch.</desc>
    <g id="Page-1" stroke="none" stroke-width="1" fill="none" fill-rule="evenodd">
        <g id="Desktop-HD" transform="translate(-537.000000, -3315.000000)" fill="#4A4C51">
            <g id="block8" transform="translate(0.000000, 3014.000000)">
                <g id="close-envelope" transform="translate(537.000000, 301.000000)">
                    <path d="M7.5016835,7.67847653 L5.55780022,6 L0,10.6999557 C0.202020202,10.8848539 0.474747475,11 0.775533109,11 L14.2278339,11 C14.5274972,11 14.7991021,10.8848539 15,10.6999557 L9.44556678,6 L7.5016835,7.67847653 Z" id="Path"></path>
                    <path d="M15,0.316166667 C14.7979949,0.120166667 14.5264103,0 14.2245249,0 L0.773230585,0 C0.473589705,0 0.202005088,0.121333333 0,0.3185 L7.49887775,7 L15,0.316166667 Z" id="Path"></path>
                    <polygon id="Path" points="0 1 0 10 5 5.55091478"></polygon>
                    <polygon id="Path" points="10 5.55252076 15 10 15 1"></polygon>
                </g>
            </g>
        </g>
    </g>
</svg>