<?xml version="1.0" encoding="UTF-8"?>
<svg width="14px" height="16px" viewBox="0 0 14 16" version="1.1" xmlns="http://www.w3.org/2000/svg" xmlns:xlink="http://www.w3.org/1999/xlink">
    <!-- Generator: Sketch 52.6 (67491) - http://www.bohemiancoding.com/sketch -->
    <title>mac-os-logo</title>
    <desc>Created with Sketch.</desc>
    <g id="Page-1" stroke="none" stroke-width="1" fill="none" fill-rule="evenodd">
        <g id="Desktop-HD" transform="translate(-1076.000000, -549.000000)" fill="#FFFFFF">
            <g id="block3" transform="translate(135.000000, 226.000000)">
                <g id="block3_4" transform="translate(800.000000, 89.000000)">
                    <g id="Group-12" transform="translate(11.000000, 230.000000)">
                        <g id="Group-9" transform="translate(130.000000, 3.000000)">
                            <g id="mac-os-logo" transform="translate(0.000000, 1.000000)">
                                <path d="M11.0491429,8.38057143 C11.0285714,6.38171429 12.6788571,5.42514286 12.752,5.37714286 C11.8251429,4.02285714 10.3828571,3.83657143 9.86742857,3.816 C8.64114286,3.69028571 7.472,4.53828571 6.848,4.53828571 C6.22628571,4.53828571 5.264,3.83314286 4.24571429,3.85142857 C2.90628571,3.872 1.67314286,4.63085714 0.982857143,5.82857143 C-0.408,8.24228571 0.626285714,11.8171429 1.98171429,13.7771429 C2.64457143,14.7348571 3.43542857,15.8102857 4.472,15.7725714 C5.47085714,15.7325714 5.848,15.1257143 7.056,15.1257143 C8.264,15.1257143 8.60342857,15.7725714 9.65942857,15.7531429 C10.7348571,15.7325714 11.4148571,14.776 12.072,13.816 C12.8331429,12.704 13.1462857,11.6262857 13.1657143,11.5725714 C13.1405714,11.5588571 11.0708571,10.7668571 11.0491429,8.38057143 Z" id="Path"></path>
                                <path d="M9.06285714,2.51885714 C9.61257143,1.85257143 9.98514286,0.924571429 9.88342857,0 C9.08914286,0.032 8.13028571,0.526857143 7.56,1.19428571 C7.04914286,1.78514286 6.60457143,2.728 6.72342857,3.63428571 C7.608,3.704 8.51314286,3.184 9.06285714,2.51885714 Z" id="Path"></path>
                            </g>
                        </g>
                    </g>
                </g>
            </g>
        </g>
    </g>
</svg>