<?xml version="1.0" encoding="UTF-8"?>
<svg width="73px" height="18px" viewBox="0 0 73 18" version="1.1" xmlns="http://www.w3.org/2000/svg" xmlns:xlink="http://www.w3.org/1999/xlink">
    <!-- Generator: Sketch 52.6 (67491) - http://www.bohemiancoding.com/sketch -->
    <title>043-twitter</title>
    <desc>Created with Sketch.</desc>
    <g id="Page-1" stroke="none" stroke-width="1" fill="none" fill-rule="evenodd">
        <g id="Desktop-HD" transform="translate(-1102.000000, -843.000000)">
            <g id="block3" transform="translate(135.000000, 226.000000)">
                <g id="block3_4" transform="translate(800.000000, 89.000000)">
                    <g id="Group-2" transform="translate(74.000000, 528.000000)">
                        <g id="043-twitter" transform="translate(93.000000, 0.000000)">
                            <rect id="Rectangle" fill="#249FBC" fill-rule="nonzero" x="0" y="0" width="73" height="18" rx="3"></rect>
                            <text id="Tweet" font-family="Montserrat-Medium, Montserrat" font-size="12" font-weight="400" fill="#FFFFFF">
                                <tspan x="25.256" y="14">Tweet</tspan>
                            </text>
                            <path d="M9.88509747,15.910754 C9.20294175,15.910754 8.50080757,15.8555124 7.79446109,15.7447884 C6.55038141,15.5495773 5.29101701,14.8988335 4.93465444,14.7039835 L4,14.1929684 L5.01192048,13.8601949 C6.11807666,13.4964908 6.79096527,13.2708306 7.62392217,12.9174768 C6.78988208,12.5135752 6.14708151,11.7870096 5.83765625,10.8477817 L5.60224753,10.1331309 L5.79529231,10.1626172 C5.61223677,9.97811744 5.4676939,9.79084957 5.35564608,9.62055134 C4.95716026,9.01530062 4.74618304,8.27573696 4.79107436,7.64196277 L4.83536394,7.01817785 L5.20881652,7.16284106 C5.05127562,6.86533066 4.93742252,6.54760111 4.87050675,6.21458687 C4.70742967,5.40245085 4.84390894,4.53964663 5.25491138,3.78515931 L5.58022309,3.18797216 L6.01529595,3.710541 C7.39128153,5.3634568 9.13410035,6.34396535 11.2025919,6.63100511 C11.1181048,6.04862131 11.18141,5.48657697 11.390943,4.98278309 C11.6348967,4.39618692 12.0688864,3.89877169 12.6456136,3.54421438 C13.2861275,3.15054268 14.06288,2.95978457 14.8327724,3.00708297 C15.6496021,3.05726979 16.3912118,3.3633252 16.980215,3.89275407 C17.2678565,3.81801542 17.4797966,3.738222 17.7662346,3.63038652 C17.9385788,3.56551673 18.1340306,3.49186124 18.3785861,3.40761477 L19.2797826,3.09710635 L18.6921033,4.77553675 C18.7308567,4.77228727 18.7708135,4.76951916 18.8125757,4.76771387 L19.7749111,4.72414643 L19.2061271,5.50150063 C19.1735117,5.54603093 19.1652074,5.55866789 19.1536536,5.57611894 C19.1077994,5.64520106 19.0507525,5.73113245 18.2700284,6.77362237 C18.0745766,7.03466608 17.9769711,7.37466076 17.9951442,7.7311437 C18.0643467,9.08582697 17.8981405,10.3114928 17.5008581,11.3739611 C17.1251189,12.3791419 16.5428554,13.2415851 15.7704356,13.9373406 C14.8145992,14.7980988 13.5957935,15.3874631 12.147717,15.6888247 C11.4373989,15.8366171 10.6746073,15.910754 9.88509747,15.910754 Z" id="Path" fill="#FFFFFF"></path>
                        </g>
                    </g>
                </g>
            </g>
        </g>
    </g>
</svg>