<?xml version="1.0" encoding="UTF-8"?>
<svg width="66px" height="46px" viewBox="0 0 66 46" version="1.1" xmlns="http://www.w3.org/2000/svg" xmlns:xlink="http://www.w3.org/1999/xlink">
    <!-- Generator: Sketch 52.6 (67491) - http://www.bohemiancoding.com/sketch -->
    <title>Amazon</title>
    <desc>Created with Sketch.</desc>
    <g id="Cards" stroke="none" stroke-width="1" fill="none" fill-rule="evenodd">
        <g id="Color" transform="translate(-101.000000, -80.000000)">
            <g id="Amazon" transform="translate(101.000000, 80.000000)">
                <path d="M0,3.00044415 C0,1.34334461 1.34828267,0 3.00738502,0 L62.992615,0 C64.6535479,0 66,1.35178054 66,3.00044415 L66,42.9995558 C66,44.6566554 64.6517173,46 62.992615,46 L3.00738502,46 C1.34645213,46 0,44.6482195 0,42.9995558 L0,3.00044415 Z" id="Rectangle-Copy-14" fill="#FF9201"></path>
                <g id="Amazon.com_A_Smile-Copy" transform="translate(19.000000, 11.000000)" fill="#FFFFFF">
                    <g id="Group">
                        <path d="M21.4372254,14.9842225 C20.8556413,14.1821376 20.2317958,13.5295695 20.2317958,12.0370366 L20.2317958,7.0824246 C20.2317958,4.98254758 20.3828144,3.05481698 18.8305405,1.61014348 C17.6086874,0.438606149 15.5789838,0.0252650073 14.0267098,0.0252650073 C10.9907846,0.0252650073 7.60407472,1.15428404 6.89385803,4.89550805 C6.81867995,5.29289605 7.10816438,5.50091947 7.37059029,5.55939092 L10.4619228,5.89296633 C10.7514072,5.87831332 10.9604483,5.59460029 11.0164832,5.30884919 C11.2815592,4.01966618 12.3643188,3.40033968 13.5809415,3.40033968 C14.237076,3.40033968 14.9821968,3.63956662 15.3705704,4.22635432 C15.8176638,4.8795549 15.7576538,5.77732357 15.7576538,6.53154905 L15.7576538,6.94685798 C13.9087123,7.15287848 11.4900075,7.28978038 9.75836613,8.04664129 C7.76102117,8.90916545 6.35844085,10.6641874 6.35844085,13.2438184 C6.35844085,16.5497745 8.44550436,18.2024363 11.1325978,18.2024363 C13.4003188,18.2024363 14.6413499,17.6688141 16.3907397,15.8906003 C16.9710685,16.7291947 17.1609664,17.133224 18.2193176,18.0110688 C18.4566725,18.1373587 18.7626849,18.1253411 18.9729813,17.9353441 L18.9737136,17.9346413 L18.9809315,17.9426179 C19.6179228,17.3777921 20.7745355,16.3756955 21.4266949,15.8308287 C21.6871333,15.6174993 21.6409664,15.2726091 21.4372254,14.9842225 Z M15.1609365,13.5555022 C14.6545654,14.4526032 13.8480399,15.0014758 12.9519004,15.0014758 C11.7300125,15.0014758 11.012543,14.0711332 11.012543,12.6949107 C11.012543,9.98568668 13.4510535,9.49395022 15.7570262,9.49395022 L15.7570262,10.1803924 L15.7576887,10.1803924 C15.7576887,11.419713 15.7873973,12.4516779 15.1609365,13.5555022 Z" id="path3673" fill-rule="nonzero"></path>
                        <g id="g3717" transform="translate(0.015971, 17.495901)">
                            <path d="M25.2338438,2.89476758 C22.180292,5.16517917 17.7519996,6.37317855 13.9382719,6.37317855 C8.5953414,6.37317855 3.78260689,4.38300785 0.140900215,1.06974912 C-0.144754628,0.809217158 0.110207666,0.45344933 0.453393195,0.655717655 C4.38303881,2.9600804 9.24174077,4.3471865 14.2599012,4.3471865 C17.6455036,4.3471865 21.3664398,3.63982281 24.790158,2.17546344 C25.3066494,1.95535638 25.7394857,2.51929082 25.2338438,2.89476758 Z" id="path3719"></path>
                            <path d="M26.5045154,1.4322784 C26.1142203,0.928909367 23.9219158,1.19375715 22.9387549,1.31344936 C22.639681,1.34840754 22.5937135,1.08686856 22.8623804,0.894958212 C24.6105709,-0.342388771 27.4752565,0.0156808303 27.8084491,0.429280711 C28.1442113,0.848635025 27.7207969,3.74239558 26.0821002,5.12288409 C25.8299931,5.33594198 25.5905912,5.22373053 25.7019409,4.94262647 C26.070537,4.0137171 26.896238,1.93651061 26.5045154,1.4322784 Z" id="path3721"></path>
                        </g>
                    </g>
                </g>
            </g>
        </g>
    </g>
</svg>