<?xml version="1.0" encoding="UTF-8"?>
<svg width="66px" height="46px" viewBox="0 0 66 46" version="1.1" xmlns="http://www.w3.org/2000/svg" xmlns:xlink="http://www.w3.org/1999/xlink">
    <!-- Generator: Sketch 52.6 (67491) - http://www.bohemiancoding.com/sketch -->
    <title>Apple Pay</title>
    <desc>Created with Sketch.</desc>
    <g id="Cards" stroke="none" stroke-width="1" fill="none" fill-rule="evenodd">
        <g id="Color" transform="translate(-26.000000, -80.000000)">
            <g id="Apple-Pay" transform="translate(26.000000, 80.000000)">
                <path d="M0,3.00044415 C0,1.34334461 1.34828267,0 3.00738502,0 L62.992615,0 C64.6535479,0 66,1.35178054 66,3.00044415 L66,42.9995558 C66,44.6566554 64.6517173,46 62.992615,46 L3.00738502,46 C1.34645213,46 0,44.6482195 0,42.9995558 L0,3.00044415 Z" id="Rectangle-Copy-12" fill="#E6E7E8"></path>
                <g id="Apple_Pay_logo" transform="translate(15.000000, 16.000000)" fill="#000000" fill-rule="nonzero">
                    <path d="M6.58125,1.92654028 C6.159375,2.43127962 5.484375,2.82938389 4.809375,2.77251185 C4.725,2.09004739 5.05546875,1.36492891 5.4421875,0.917061611 C5.8640625,0.398104265 6.60234375,0.028436019 7.2,0 C7.2703125,0.710900474 6.99609375,1.40758294 6.58125,1.92654028 Z M7.19296875,2.90758294 C6.215625,2.8507109 5.37890625,3.46919431 4.91484375,3.46919431 C4.44375,3.46919431 3.73359375,2.93601896 2.96015625,2.95023697 C1.9546875,2.96445498 1.01953125,3.54028436 0.50625,4.45734597 C-0.5484375,6.29146919 0.23203125,9.007109 1.2515625,10.5 C1.75078125,11.2393365 2.3484375,12.049763 3.1359375,12.021327 C3.88125,11.992891 4.1765625,11.5308057 5.0765625,11.5308057 C5.98359375,11.5308057 6.24375,12.021327 7.03125,12.007109 C7.846875,11.992891 8.36015625,11.2677725 8.859375,10.528436 C9.42890625,9.68957346 9.6609375,8.87203791 9.675,8.82938389 C9.6609375,8.81516588 8.1,8.21090047 8.0859375,6.39099526 C8.071875,4.86966825 9.31640625,4.14454976 9.37265625,4.10189573 C8.66953125,3.04976303 7.57265625,2.93601896 7.19296875,2.90758294 Z M12.8390625,0.845971564 L12.8390625,11.92891 L14.540625,11.92891 L14.540625,8.13981043 L16.8960937,8.13981043 C19.0476562,8.13981043 20.559375,6.64691943 20.559375,4.48578199 C20.559375,2.32464455 19.0757812,0.845971564 16.9523437,0.845971564 L12.8390625,0.845971564 Z M14.540625,2.29620853 L16.5023437,2.29620853 C17.9789062,2.29620853 18.8226562,3.09241706 18.8226562,4.492891 C18.8226562,5.89336493 17.9789062,6.69668246 16.4953125,6.69668246 L14.540625,6.69668246 L14.540625,2.29620853 Z M23.6671875,12.014218 C24.7359375,12.014218 25.7273437,11.4668246 26.1773437,10.5995261 L26.2125,10.5995261 L26.2125,11.92891 L27.7875,11.92891 L27.7875,6.41232227 C27.7875,4.81279621 26.521875,3.78199052 24.5742187,3.78199052 C22.7671875,3.78199052 21.43125,4.82701422 21.3820312,6.26303318 L22.9148437,6.26303318 C23.0414062,5.58056872 23.6671875,5.13270142 24.525,5.13270142 C25.565625,5.13270142 26.1492187,5.62322275 26.1492187,6.52606635 L26.1492187,7.13744076 L24.0257812,7.26540284 C22.05,7.38625592 20.98125,8.20379147 20.98125,9.62559242 C20.98125,11.0616114 22.0851562,12.014218 23.6671875,12.014218 Z M24.1242187,10.6990521 C23.2171875,10.6990521 22.640625,10.2582938 22.640625,9.58293839 C22.640625,8.88625592 23.1960937,8.48104265 24.2578125,8.41706161 L26.1492187,8.29620853 L26.1492187,8.92180095 C26.1492187,9.95971564 25.2773437,10.6990521 24.1242187,10.6990521 Z M29.8898438,14.943128 C31.5492188,14.943128 32.3296875,14.3033175 33.0117188,12.3625592 L36,3.88862559 L34.2703125,3.88862559 L32.2664062,10.436019 L32.23125,10.436019 L30.2273437,3.88862559 L28.4484375,3.88862559 L31.33125,11.957346 L31.1765625,12.4478673 C30.9164062,13.2796209 30.4945312,13.5995261 29.7421875,13.5995261 C29.6085938,13.5995261 29.3484375,13.5853081 29.2429687,13.57109 L29.2429687,14.9004739 C29.3414062,14.92891 29.7632812,14.943128 29.8898438,14.943128 Z" id="XMLID_34_"></path>
                </g>
            </g>
        </g>
    </g>
</svg>