<?xml version="1.0" encoding="UTF-8"?>
<svg width="66px" height="46px" viewBox="0 0 66 46" version="1.1" xmlns="http://www.w3.org/2000/svg" xmlns:xlink="http://www.w3.org/1999/xlink">
    <!-- Generator: Sketch 52.6 (67491) - http://www.bohemiancoding.com/sketch -->
    <title>Bitcoin</title>
    <desc>Created with Sketch.</desc>
    <g id="Cards" stroke="none" stroke-width="1" fill="none" fill-rule="evenodd">
        <g id="Color" transform="translate(-177.000000, -80.000000)">
            <g id="Bitcoin" transform="translate(177.000000, 80.000000)">
                <path d="M0,3.00044415 C0,1.34334461 1.34828267,0 3.00738502,0 L62.992615,0 C64.6535479,0 66,1.35178054 66,3.00044415 L66,42.9995558 C66,44.6566554 64.6517173,46 62.992615,46 L3.00738502,46 C1.34645213,46 0,44.6482195 0,42.9995558 L0,3.00044415 Z" id="Rectangle-Copy-18" fill="#F7931A"></path>
                <g id="Bitcoin_logo-Copy" transform="translate(24.000000, 12.000000)" fill="#FFFFFF" fill-rule="nonzero">
                    <path d="M17.3629169,8.77823308 C17.7059169,6.48546385 15.9602246,5.25292538 13.5732246,4.43069462 L14.3475323,1.32484846 L12.4569938,0.853694615 L11.7031477,3.87769462 C11.2061477,3.75384846 10.6956862,3.63700231 10.1884554,3.52123308 L10.9476862,0.47731 L9.05822462,0.00615615385 L8.28337846,3.11092538 C7.87199385,3.01723308 7.46814769,2.92461769 7.07614769,2.82715615 L7.07830154,2.81746385 L4.47107077,2.16646385 L3.96814769,4.18569462 C3.96814769,4.18569462 5.37084,4.50715615 5.34122462,4.52707923 C6.10691692,4.71823308 6.24530154,5.22492538 6.22214769,5.62661769 L5.34014769,9.16484846 C5.39291692,9.17831 5.46130154,9.19769462 5.53668615,9.22784846 C5.47368615,9.21223308 5.40637846,9.19500231 5.33691692,9.17831 L4.10060923,14.1348485 C4.00691692,14.3674638 3.76945538,14.7163869 3.23422462,14.5839254 C3.25307077,14.6113869 1.86007077,14.2409254 1.86007077,14.2409254 L0.921532308,16.4050023 L3.38176308,17.01831 C3.83945538,17.1330023 4.28799385,17.2530792 4.72953231,17.3661562 L3.94714769,20.5075408 L5.83553231,20.9786946 L6.61037846,17.8706946 C7.12622462,18.0106946 7.62699385,18.1399254 8.11699385,18.2616177 L7.34484,21.3550792 L9.23537846,21.8262331 L10.0177631,18.6907715 C13.2415323,19.3008485 15.6656862,19.0547715 16.6860708,16.1390023 C17.5083015,13.79131 16.6451477,12.4370792 14.9489938,11.5540023 C16.1842246,11.2691562 17.1146862,10.4566177 17.3629169,8.77823308 Z M13.0433785,14.8353869 C12.4591477,17.1830792 8.50630154,15.9139254 7.22476308,15.5956946 L8.26291692,11.4339254 C9.54445538,11.7537715 13.6539938,12.3870023 13.0433785,14.8353869 Z M13.6281477,8.74431 C13.0950708,10.8798485 9.80507077,9.79484846 8.73784,9.52884846 L9.67907077,5.75423308 C10.7463015,6.02023308 14.1833015,6.51669462 13.6281477,8.74431 Z" id="Shape"></path>
                </g>
            </g>
        </g>
    </g>
</svg>